<svg width="75" height="56" viewBox="0 0 75 56" fill="none" xmlns="http://www.w3.org/2000/svg">
<g clip-path="url(#clip0_31_53)">
<mask id="mask0_31_53" style="mask-type:luminance" maskUnits="userSpaceOnUse" x="0" y="0" width="75" height="56">
<path d="M74.998 0.0203857H0.00201416V55.0577H74.998V0.0203857Z" fill="white"/>
</mask>
<g mask="url(#mask0_31_53)">
<path d="M34.4718 32.6025V18.3458C34.4718 17.8052 34.2582 17.2867 33.8781 16.9044C33.498 16.5221 32.9824 16.3074 32.4448 16.3074C31.9073 16.3074 31.3917 16.5221 31.0116 16.9044C30.6315 17.2867 30.4179 17.8052 30.4179 18.3458V32.5291C30.4179 37.0931 26.7695 40.8051 22.3102 40.8051C17.851 40.8051 14.2026 37.0931 14.2026 32.5291V12.2305C14.2026 11.6899 13.989 11.1714 13.6089 10.7891C13.2288 10.4069 12.7132 10.1921 12.1757 10.1921C11.6381 10.1921 11.1225 10.4069 10.7424 10.7891C10.3623 11.1714 10.1487 11.6899 10.1487 12.2305V32.6025C10.1487 35.8462 11.43 38.9571 13.7108 41.2508C15.9915 43.5445 19.0848 44.833 22.3102 44.833C25.5357 44.833 28.629 43.5445 30.9097 41.2508C33.1905 38.9571 34.4718 35.8462 34.4718 32.6025Z" fill="#F7146B"/>
<path d="M33.3184 10.1921C33.7175 10.1893 34.1073 10.0702 34.4404 9.8491C34.7736 9.62804 35.0358 9.31456 35.1954 8.94664C35.8274 7.50522 36.8611 6.27879 38.1716 5.41566C39.482 4.55252 41.013 4.08964 42.5794 4.08297C47.0508 4.08297 50.6871 7.79697 50.6871 12.359V32.6147C50.6871 33.1554 50.9006 33.6738 51.2808 34.0561C51.6609 34.4384 52.1764 34.6532 52.714 34.6532C53.2516 34.6532 53.7671 34.4384 54.1473 34.0561C54.5274 33.6738 54.7409 33.1554 54.7409 32.6147V12.2509C54.7442 9.43944 53.7843 6.71265 52.0227 4.52958C50.261 2.3465 47.8053 0.840443 45.0689 0.264927C42.3325 -0.31059 39.4825 0.079579 36.9986 1.36975C34.5147 2.65993 32.5486 4.77132 31.4314 7.34852C31.2991 7.66106 31.2461 8.00175 31.2771 8.33999C31.3081 8.67822 31.4222 9.00342 31.6091 9.28636C31.796 9.56929 32.0498 9.80111 32.3478 9.96098C32.6458 10.1209 32.9786 10.2038 33.3164 10.2023" fill="#F7146B"/>
<path d="M42.5794 10.1921C42.0418 10.1921 41.5263 10.4069 41.1462 10.7891C40.766 11.1714 40.5525 11.6899 40.5525 12.2305V32.6025C40.5525 35.8462 41.8338 38.9571 44.1145 41.2508C46.3952 43.5445 49.4886 44.833 52.714 44.833C55.9394 44.833 59.0328 43.5445 61.3135 41.2508C63.5942 38.9571 64.8755 35.8462 64.8755 32.6025V30.5763C64.8755 30.0357 64.662 29.5172 64.2818 29.1349C63.9017 28.7527 63.3862 28.5379 62.8486 28.5379C62.311 28.5379 61.7955 28.7527 61.4153 29.1349C61.0352 29.5172 60.8217 30.0357 60.8217 30.5763V32.5291C60.8217 37.0931 57.1833 40.8051 52.714 40.8051C48.2446 40.8051 44.6063 37.0931 44.6063 32.5291V12.2305C44.6063 11.6899 44.3928 11.1714 44.0127 10.7891C43.6325 10.4069 43.117 10.1921 42.5794 10.1921Z" fill="#F7146B"/>
<path d="M2.02893 18.3478C2.5665 18.3478 3.08206 18.1331 3.46218 17.7508C3.8423 17.3685 4.05585 16.85 4.05585 16.3094V12.363C4.05585 7.799 7.7043 4.085 12.1635 4.085C16.6227 4.085 20.2712 7.799 20.2712 12.363V32.6147C20.2712 33.1554 20.4847 33.6738 20.8649 34.0561C21.245 34.4384 21.7605 34.6532 22.2981 34.6532C22.8357 34.6532 23.3512 34.4384 23.7314 34.0561C24.1115 33.6738 24.325 33.1554 24.325 32.6147V12.2509C24.325 9.00717 23.0437 5.89629 20.763 3.60262C18.4823 1.30896 15.389 0.0203857 12.1635 0.0203857C8.93809 0.0203857 5.84476 1.30896 3.56404 3.60262C1.28331 5.89629 0.00201416 9.00717 0.00201416 12.2509L0.00201416 16.3094C0.00201416 16.85 0.215564 17.3685 0.595685 17.7508C0.975805 18.1331 1.49136 18.3478 2.02893 18.3478Z" fill="#F7146B"/>
<path d="M4.05583 33.693V26.4995C4.05645 26.2199 3.99988 25.9432 3.88964 25.6865C3.77939 25.4298 3.61782 25.1987 3.41498 25.0076C3.21214 24.8164 2.97235 24.6692 2.71054 24.5752C2.44873 24.4812 2.17049 24.4423 1.89311 24.461C1.37133 24.5078 0.886435 24.7512 0.535691 25.1425C0.184947 25.5338 -0.00570059 26.044 0.00199419 26.5708V33.4199C0.0132169 38.9425 2.11495 44.2536 5.88005 48.2739C6.23975 48.6493 6.73184 48.8674 7.25007 48.881C7.76829 48.8947 8.27106 48.7028 8.64979 48.3468C9.02853 47.9908 9.25283 47.4993 9.27427 46.9784C9.2957 46.4575 9.11255 45.949 8.76436 45.5628C5.74 42.3594 4.05445 38.1103 4.05583 33.693Z" fill="#F7146B"/>
<path d="M73.0237 2.19742C71.8388 0.946494 70.2413 0.172557 68.53 0.0203842H68.453C68.3679 0.0203842 68.2807 0.00815368 68.1936 0.00611526H68.0335L67.9037 0H67.851C67.8226 0 67.7943 0 67.7659 0C67.4885 0.00511837 67.2117 0.0269003 66.9369 0.0652295H66.9024C65.2104 0.307823 63.6624 1.15655 62.543 2.45534C61.4236 3.75414 60.808 5.41569 60.8095 7.13447V20.3842C60.8089 20.6638 60.8655 20.9405 60.9757 21.1972C61.086 21.4538 61.2475 21.6849 61.4504 21.8761C61.6532 22.0673 61.893 22.2145 62.1548 22.3085C62.4166 22.4025 62.6949 22.4414 62.9722 22.4226C63.4942 22.3763 63.9794 22.133 64.3302 21.7416C64.681 21.3502 64.8715 20.8398 64.8633 20.3129V7.22212C64.8553 6.42675 65.15 5.65839 65.6869 5.0744C66.2239 4.4904 66.9626 4.13498 67.7517 4.08092C68.4475 4.04575 69.1341 4.2531 69.6955 4.66798C69.7523 4.71079 69.807 4.7536 69.8597 4.80048L69.9509 4.87794C69.9854 4.90852 70.0178 4.94113 70.0482 4.97375C70.0786 5.00636 70.1232 5.04917 70.1577 5.0879L70.257 5.20409L70.3502 5.32435C70.3725 5.35493 70.3948 5.38347 70.4151 5.41404C70.4353 5.44462 70.4921 5.53431 70.5286 5.5975L70.5732 5.67496C70.6117 5.74631 70.6482 5.81765 70.6806 5.89104C70.6806 5.91142 70.6968 5.9318 70.707 5.95219C70.7374 6.02557 70.7657 6.09895 70.7901 6.17641L70.8022 6.20699C70.8286 6.2926 70.8509 6.38026 70.8711 6.46791L70.8833 6.52498C70.8995 6.61264 70.9137 6.70233 70.9238 6.79406V6.84502C70.9238 6.94082 70.938 7.03663 70.938 7.13447V33.6543C70.9406 34.5586 70.8729 35.4616 70.7353 36.3552C70.6864 36.6473 70.7014 36.9465 70.7792 37.2321C70.857 37.5177 70.9957 37.7828 71.1857 38.0091C71.3758 38.2353 71.6125 38.4171 71.8795 38.542C72.1465 38.6668 72.4374 38.7317 72.7318 38.732C73.215 38.7321 73.6823 38.5585 74.0494 38.2427C74.4166 37.9269 74.6596 37.4896 74.7344 37.0096C74.9087 35.9066 74.9968 34.7915 74.9979 33.6747V7.13447C75.0002 5.29343 74.2917 3.52339 73.0217 2.19742" fill="#F7146B"/>
<path d="M68.8382 43.6222H68.7794C68.4765 43.6239 68.178 43.6947 67.9062 43.8292C67.6345 43.9637 67.3966 44.1585 67.2106 44.3988C67.1092 44.5252 67.0079 44.6496 66.9045 44.7739C66.6977 45.0199 66.4842 45.2611 66.264 45.4976C65.7799 46.0133 65.2655 46.4993 64.7235 46.953L64.6911 46.9815C64.5979 47.059 64.5026 47.1344 64.4073 47.2098L64.3445 47.2608L64.0749 47.4646L63.9918 47.5278L63.7303 47.7194L63.631 47.7908L63.3736 47.9702L63.2662 48.0435L63.0088 48.2127L62.8912 48.2861L62.6358 48.4471L62.5142 48.5205L62.2547 48.6734L62.1291 48.7448L61.8676 48.8895L61.7419 48.9568L61.4724 49.0974L61.3507 49.1565C61.2575 49.2034 61.1663 49.2503 61.073 49.2931L60.9717 49.34C60.6352 49.4976 60.2974 49.6444 59.9582 49.7803L59.865 49.817L59.6137 49.9107L59.4373 49.9739C59.3603 50.0025 59.2812 50.0269 59.2042 50.0534L59.0015 50.1207L58.7745 50.192L58.5718 50.2552L58.3489 50.3184L58.1279 50.3796L57.907 50.4366L57.682 50.4917L57.4611 50.5426L57.228 50.5916L57.0111 50.6364L56.7719 50.6813L56.555 50.7179L56.3098 50.7567L56.0949 50.7873L55.8396 50.8199L55.6369 50.8464L55.3713 50.8729L55.1686 50.8912L54.8889 50.9116L54.6984 50.9238L54.3842 50.9381H54.2221C54.064 50.9381 53.9038 50.9381 53.7437 50.9381C51.0678 50.9364 48.4291 50.308 46.0367 49.1025C43.6443 47.897 41.564 46.1477 39.9607 43.9932L39.9505 44.0115L39.9384 43.9932C39.6595 43.6178 39.2973 43.313 38.8807 43.103C38.4641 42.893 38.0045 42.7837 37.5385 42.7837C37.0725 42.7837 36.6129 42.893 36.1963 43.103C35.7797 43.313 35.4176 43.6178 35.1386 43.9932V44.0054C33.0286 46.8648 30.0938 49.001 26.7336 50.1233C23.3734 51.2456 19.751 51.2995 16.3592 50.2776C15.8472 50.1236 15.2953 50.1804 14.8249 50.4355C14.3545 50.6907 14.0041 51.1233 13.8509 51.6383C13.6977 52.1532 13.7542 52.7083 14.0079 53.1814C14.2617 53.6544 14.6919 54.0068 15.2039 54.1608C17.1884 54.7737 19.2533 55.0829 21.3292 55.0781C24.4533 55.0779 27.5385 54.3817 30.3632 53.0397C33.1028 51.7349 35.5349 49.8588 37.498 47.536C40.9804 51.6549 45.8839 54.2959 51.2231 54.9281C56.5623 55.5603 61.9417 54.137 66.2802 50.9442C66.3889 50.864 66.4894 50.7732 66.5802 50.6731C66.8031 50.5019 67.022 50.3286 67.2369 50.1492L67.2754 50.1166C67.4781 49.9556 67.6605 49.7884 67.849 49.6192L67.9544 49.5255C68.1125 49.3801 68.2686 49.2333 68.4227 49.0852C68.4835 49.024 68.5463 48.9669 68.6091 48.9058C68.7389 48.7774 68.8645 48.6449 68.9922 48.5124C69.0611 48.441 69.1321 48.3717 69.1949 48.2983L69.2111 48.278C69.6165 47.8417 70.0097 47.3872 70.3786 46.9163C70.6158 46.6191 70.7647 46.2606 70.8081 45.882C70.8515 45.5034 70.7877 45.1202 70.6239 44.7765C70.4601 44.4329 70.2031 44.1427 69.8825 43.9396C69.5619 43.7364 69.1908 43.6285 68.8118 43.6283" fill="#F7146B"/>
</g>
</g>
<defs>
<clipPath id="clip0_31_53">
<rect width="75" height="55.0781" fill="white"/>
</clipPath>
</defs>
</svg>
