<svg width="75" height="55" viewBox="0 0 75 55" fill="none" xmlns="http://www.w3.org/2000/svg">
<g clip-path="url(#clip0_31_65)">
<mask id="mask0_31_65" style="mask-type:luminance" maskUnits="userSpaceOnUse" x="0" y="0" width="75" height="55">
<path d="M74.998 0.0202637H0.00201416V54.7416H74.998V0.0202637Z" fill="white"/>
</mask>
<g mask="url(#mask0_31_65)">
<path d="M34.4718 32.4153V18.2404C34.4718 17.7029 34.2582 17.1874 33.8781 16.8073C33.498 16.4273 32.9824 16.2137 32.4449 16.2137C31.9073 16.2137 31.3917 16.4273 31.0116 16.8073C30.6315 17.1874 30.4179 17.7029 30.4179 18.2404V32.3423C30.4179 36.8802 26.7695 40.5708 22.3103 40.5708C17.8511 40.5708 14.2026 36.8802 14.2026 32.3423V12.1603C14.2026 11.6228 13.9891 11.1073 13.6089 10.7272C13.2288 10.3471 12.7133 10.1336 12.1757 10.1336C11.6381 10.1336 11.1226 10.3471 10.7424 10.7272C10.3623 11.1073 10.1488 11.6228 10.1488 12.1603V32.4153C10.1488 35.6404 11.4301 38.7334 13.7108 41.0139C15.9915 43.2944 19.0848 44.5756 22.3103 44.5756C25.5357 44.5756 28.629 43.2944 30.9098 41.0139C33.1905 38.7334 34.4718 35.6404 34.4718 32.4153Z" fill="black"/>
<path d="M33.3185 10.1336C33.7176 10.1308 34.1073 10.0123 34.4404 9.79253C34.7736 9.57273 35.0358 9.26105 35.1954 8.89525C35.8274 7.4621 36.8612 6.24272 38.1716 5.38454C39.482 4.52636 41.013 4.06613 42.5794 4.0595C47.0508 4.0595 50.6871 7.75218 50.6871 12.288V32.4275C50.6871 32.965 50.9007 33.4805 51.2808 33.8606C51.6609 34.2407 52.1765 34.4542 52.714 34.4542C53.2516 34.4542 53.7672 34.2407 54.1473 33.8606C54.5274 33.4805 54.7409 32.965 54.7409 32.4275V12.1806C54.7443 9.38522 53.7843 6.67409 52.0227 4.50354C50.2611 2.333 47.8054 0.835591 45.0689 0.263379C42.3325 -0.308833 39.4825 0.0790951 36.9986 1.36186C34.5147 2.64463 32.5487 4.7439 31.4314 7.3063C31.2991 7.61705 31.2461 7.95578 31.2771 8.29208C31.3081 8.62837 31.4222 8.9517 31.6091 9.23301C31.796 9.51433 32.0498 9.74481 32.3478 9.90377C32.6458 10.0627 32.9787 10.1452 33.3164 10.1437" fill="black"/>
<path d="M42.5795 10.1336C42.0419 10.1336 41.5263 10.3471 41.1462 10.7272C40.7661 11.1073 40.5526 11.6228 40.5526 12.1603V32.4153C40.5526 35.6404 41.8338 38.7334 44.1146 41.0139C46.3953 43.2944 49.4886 44.5756 52.7141 44.5756C55.9395 44.5756 59.0328 43.2944 61.3135 41.0139C63.5943 38.7334 64.8756 35.6404 64.8756 32.4153V30.4007C64.8756 29.8632 64.662 29.3477 64.2819 28.9676C63.9018 28.5876 63.3862 28.374 62.8486 28.374C62.3111 28.374 61.7955 28.5876 61.4154 28.9676C61.0353 29.3477 60.8217 29.8632 60.8217 30.4007V32.3423C60.8217 36.8802 57.1834 40.5708 52.7141 40.5708C48.2447 40.5708 44.6064 36.8802 44.6064 32.3423V12.1603C44.6064 11.6228 44.3928 11.1073 44.0127 10.7272C43.6326 10.3471 43.117 10.1336 42.5795 10.1336Z" fill="black"/>
<path d="M2.02893 18.2425C2.5665 18.2425 3.08206 18.029 3.46218 17.6489C3.8423 17.2688 4.05585 16.7533 4.05585 16.2158V12.292C4.05585 7.75422 7.7043 4.06154 12.1635 4.06154C16.6227 4.06154 20.2712 7.75422 20.2712 12.292V32.4275C20.2712 32.965 20.4847 33.4805 20.8649 33.8606C21.245 34.2407 21.7605 34.4542 22.2981 34.4542C22.8357 34.4542 23.3512 34.2407 23.7314 33.8606C24.1115 33.4805 24.325 32.965 24.325 32.4275V12.1806C24.325 8.95546 23.0437 5.86243 20.763 3.58193C18.4823 1.30143 15.389 0.0202637 12.1635 0.0202637C8.93809 0.0202637 5.84476 1.30143 3.56404 3.58193C1.28331 5.86243 0.00201416 8.95546 0.00201416 12.1806L0.00201416 16.2158C0.00201416 16.7533 0.215564 17.2688 0.595685 17.6489C0.975805 18.029 1.49136 18.2425 2.02893 18.2425Z" fill="black"/>
<path d="M4.05586 33.4996V26.3473C4.05648 26.0693 3.99991 25.7942 3.88967 25.539C3.77942 25.2838 3.61785 25.0541 3.41501 24.864C3.21217 24.6739 2.97238 24.5276 2.71057 24.4341C2.44876 24.3406 2.17052 24.302 1.89314 24.3206C1.37136 24.3671 0.886466 24.6091 0.535722 24.9982C0.184977 25.3872 -0.00567007 25.8945 0.00202471 26.4182V33.228C0.0132475 38.7189 2.11498 43.9996 5.88009 47.9967C6.23978 48.37 6.73187 48.5868 7.2501 48.6004C7.76832 48.614 8.27109 48.4232 8.64982 48.0692C9.02856 47.7153 9.25286 47.2266 9.2743 46.7087C9.29573 46.1908 9.11258 45.6852 8.76439 45.3012C5.74003 42.1162 4.05448 37.8915 4.05586 33.4996Z" fill="black"/>
<path d="M73.0238 2.1848C71.8388 0.94106 70.2413 0.171566 68.5301 0.0202672H68.453C68.3679 0.0202672 68.2808 0.00810687 68.1936 0.00608015H68.0335L67.9038 0H67.8511C67.8227 0 67.7943 0 67.7659 0C67.4885 0.00508898 67.2117 0.0267459 66.9369 0.064855H66.9025C65.2105 0.306056 63.6625 1.14991 62.543 2.44124C61.4236 3.73258 60.8081 5.38459 60.8095 7.09351V20.2672C60.8089 20.5451 60.8655 20.8203 60.9757 21.0755C61.086 21.3306 61.2476 21.5604 61.4504 21.7505C61.6532 21.9406 61.893 22.0869 62.1548 22.1804C62.4166 22.2739 62.6949 22.3125 62.9723 22.2939C63.4942 22.2479 63.9794 22.0059 64.3302 21.6168C64.6811 21.2276 64.8716 20.7201 64.8634 20.1962V7.18066C64.8553 6.38985 65.15 5.6259 65.687 5.04526C66.224 4.46462 66.9626 4.11124 67.7517 4.05749C68.4476 4.02252 69.1341 4.22869 69.6956 4.64118C69.7523 4.68374 69.807 4.72631 69.8597 4.77292L69.9509 4.84993C69.9854 4.88034 70.0178 4.91276 70.0482 4.94519C70.0786 4.97762 70.1232 5.02018 70.1577 5.05869L70.257 5.17421L70.3502 5.29379C70.3725 5.32419 70.3948 5.35256 70.4151 5.38296C70.4354 5.41336 70.4921 5.50254 70.5286 5.56537L70.5732 5.64238C70.6117 5.71332 70.6482 5.78425 70.6806 5.85721C70.6806 5.87748 70.6968 5.89775 70.707 5.91801C70.7374 5.99098 70.7658 6.06394 70.7901 6.14095L70.8022 6.17135C70.8286 6.25648 70.8509 6.34363 70.8712 6.43077L70.8833 6.48752C70.8995 6.57467 70.9137 6.66385 70.9239 6.75505V6.80572C70.9239 6.90097 70.9381 6.99623 70.9381 7.09351V33.4611C70.9407 34.3602 70.8729 35.258 70.7354 36.1465C70.6865 36.4369 70.7015 36.7344 70.7792 37.0183C70.857 37.3023 70.9958 37.5659 71.1858 37.7908C71.3758 38.0158 71.6126 38.1966 71.8796 38.3207C72.1466 38.4448 72.4374 38.5093 72.7319 38.5097C73.215 38.5097 73.6823 38.3372 74.0495 38.0232C74.4167 37.7092 74.6596 37.2743 74.7345 36.7971C74.9087 35.7004 74.9968 34.5918 74.998 33.4814V7.09351C75.0002 5.26303 74.2917 3.50316 73.0217 2.1848" fill="black"/>
<path d="M68.8382 43.3718H68.7794C68.4765 43.3735 68.178 43.4438 67.9062 43.5776C67.6345 43.7113 67.3966 43.905 67.2105 44.1439C67.1092 44.2696 67.0079 44.3932 66.9045 44.5168C66.6977 44.7614 66.4842 45.0012 66.264 45.2363C65.7799 45.7491 65.2655 46.2323 64.7235 46.6834L64.6911 46.7118C64.5979 46.7888 64.5026 46.8638 64.4073 46.9388L64.3445 46.9894L64.0749 47.1921L63.9918 47.2549L63.7303 47.4455L63.631 47.5164L63.3736 47.6947L63.2662 47.7677L63.0088 47.9359L62.8912 48.0089L62.6358 48.169L62.5142 48.242L62.2547 48.394L62.1291 48.4649L61.8676 48.6088L61.7419 48.6757L61.4723 48.8155L61.3507 48.8743C61.2575 48.9209 61.1663 48.9675 61.073 49.0101L60.9717 49.0567C60.6352 49.2134 60.2974 49.3594 59.9582 49.4945L59.865 49.5309L59.6137 49.6242L59.4373 49.687C59.3603 49.7154 59.2812 49.7397 59.2042 49.766L59.0015 49.8329L58.7745 49.9039L58.5718 49.9667L58.3489 50.0295L58.1279 50.0903L57.907 50.1471L57.682 50.2018L57.4611 50.2525L57.228 50.3011L57.0111 50.3457L56.7719 50.3903L56.555 50.4268L56.3098 50.4653L56.0949 50.4957L55.8395 50.5281L55.6369 50.5544L55.3713 50.5808L55.1686 50.599L54.8889 50.6193L54.6984 50.6315L54.3842 50.6456H54.2221C54.064 50.6456 53.9038 50.6456 53.7437 50.6456C51.0678 50.644 48.4291 50.0191 46.0367 48.8206C43.6443 47.622 41.564 45.8828 39.9607 43.7406L39.9505 43.7589L39.9384 43.7406C39.6595 43.3674 39.2973 43.0643 38.8807 42.8555C38.4641 42.6468 38.0045 42.5381 37.5385 42.5381C37.0725 42.5381 36.6129 42.6468 36.1963 42.8555C35.7797 43.0643 35.4176 43.3674 35.1386 43.7406V43.7528C33.0286 46.5958 30.0938 48.7197 26.7336 49.8355C23.3734 50.9514 19.751 51.005 16.3592 49.989C15.8472 49.8358 15.2953 49.8923 14.8249 50.146C14.3545 50.3997 14.0041 50.8298 13.8509 51.3418C13.6977 51.8538 13.7542 52.4057 14.0079 52.876C14.2617 53.3464 14.6919 53.6967 15.2039 53.8499C17.1884 54.4592 19.2533 54.7667 21.3292 54.7619C24.4533 54.7617 27.5385 54.0695 30.3632 52.7352C33.1028 51.4379 35.5349 49.5725 37.498 47.2631C40.9804 51.3584 45.8839 53.9841 51.2231 54.6127C56.5623 55.2413 61.9416 53.8262 66.2802 50.6517C66.3889 50.572 66.4893 50.4817 66.5802 50.3822C66.8031 50.2119 67.022 50.0397 67.2369 49.8613L67.2754 49.8289C67.4781 49.6688 67.6605 49.5026 67.849 49.3344L67.9544 49.2411C68.1125 49.0966 68.2686 48.9506 68.4226 48.8034C68.4835 48.7426 68.5463 48.6858 68.6091 48.625C68.7388 48.4973 68.8645 48.3656 68.9922 48.2338C69.0611 48.1629 69.1321 48.094 69.1949 48.021L69.2111 48.0008C69.6165 47.5671 70.0097 47.1151 70.3786 46.6469C70.6158 46.3515 70.7647 45.995 70.8081 45.6186C70.8515 45.2422 70.7876 44.8611 70.6239 44.5195C70.4601 44.1778 70.2031 43.8893 69.8825 43.6873C69.5619 43.4853 69.1908 43.3781 68.8118 43.3778" fill="black"/>
</g>
</g>
<defs>
<clipPath id="clip0_31_65">
<rect width="75" height="54.7619" fill="white"/>
</clipPath>
</defs>
</svg>
