<svg width="50" height="50" viewBox="0 0 50 50" fill="none" xmlns="http://www.w3.org/2000/svg">
<g clip-path="url(#clip0_34_76)">
<path d="M36.9187 6.25L33.975 2.43333C33.3886 1.67876 32.6382 1.06753 31.7805 0.645946C30.9229 0.224357 29.9806 0.00346467 29.025 0L20.975 0C20.0194 0.00346467 19.077 0.224357 18.2194 0.645946C17.3618 1.06753 16.6114 1.67876 16.025 2.43333L13.0812 6.25H36.9187Z" fill="black"/>
<path d="M25 37.5C29.6024 37.5 33.3333 33.7691 33.3333 29.1667C33.3333 24.5643 29.6024 20.8333 25 20.8333C20.3976 20.8333 16.6667 24.5643 16.6667 29.1667C16.6667 33.7691 20.3976 37.5 25 37.5Z" fill="black"/>
<path d="M39.5833 10.4167H10.4167C7.65501 10.42 5.00741 11.5185 3.05462 13.4713C1.10184 15.4241 0.00330804 18.0717 0 20.8333L0 39.5833C0.00330804 42.345 1.10184 44.9926 3.05462 46.9454C5.00741 48.8982 7.65501 49.9967 10.4167 50H39.5833C42.345 49.9967 44.9926 48.8982 46.9454 46.9454C48.8982 44.9926 49.9967 42.345 50 39.5833V20.8333C49.9967 18.0717 48.8982 15.4241 46.9454 13.4713C44.9926 11.5185 42.345 10.42 39.5833 10.4167ZM25 41.6667C22.5277 41.6667 20.111 40.9335 18.0554 39.56C15.9998 38.1865 14.3976 36.2343 13.4515 33.9502C12.5054 31.6661 12.2579 29.1528 12.7402 26.728C13.2225 24.3033 14.413 22.076 16.1612 20.3278C17.9093 18.5797 20.1366 17.3892 22.5614 16.9068C24.9861 16.4245 27.4995 16.6721 29.7835 17.6182C32.0676 18.5643 34.0199 20.1664 35.3934 22.222C36.7669 24.2776 37.5 26.6944 37.5 29.1667C37.4967 32.4808 36.1787 35.6584 33.8352 38.0018C31.4917 40.3453 28.3142 41.6633 25 41.6667Z" fill="black"/>
</g>
<defs>
<clipPath id="clip0_34_76">
<rect width="50" height="50" fill="white"/>
</clipPath>
</defs>
</svg>
