<svg width="50" height="50" viewBox="0 0 50 50" fill="none" xmlns="http://www.w3.org/2000/svg">
<g clip-path="url(#clip0_34_85)">
<path d="M50 23.5604V50H25.0375C20.1604 49.9976 15.3905 48.5688 11.3152 45.8895C7.24001 43.2102 4.03747 39.3974 2.10209 34.9207C0.166705 30.4441 -0.417001 25.4991 0.422868 20.6948C1.26274 15.8906 3.4895 11.4369 6.82888 7.88235C10.1683 4.32781 14.4744 1.82766 19.2169 0.689841C23.9595 -0.447979 28.9312 -0.173771 33.5199 1.47869C38.1085 3.13115 42.1136 6.08969 45.0418 9.9899C47.9701 13.8901 49.6936 18.5617 50 23.4291V23.5604ZM27.0833 14.5833H14.5833V18.75H27.0833V14.5833ZM35.4167 22.9166H14.5833V27.0833H35.4167V22.9166ZM35.4167 31.25H14.5833V35.4166H35.4167V31.25Z" fill="black"/>
</g>
<defs>
<clipPath id="clip0_34_85">
<rect width="50" height="50" fill="white"/>
</clipPath>
</defs>
</svg>
