<svg width="50" height="50" viewBox="0 0 50 50" fill="none" xmlns="http://www.w3.org/2000/svg">
<g clip-path="url(#clip0_34_63)">
<path d="M25 31.2345C21.5482 31.2345 18.75 34.0327 18.75 37.4845V49.9845H31.25V37.4845C31.25 34.0327 28.4518 31.2345 25 31.2345Z" fill="black"/>
<path d="M35.4167 37.4845V49.9845H43.75C47.2018 49.9845 50 47.1862 50 43.7345V24.7324C50.0005 23.6501 49.5799 22.6101 48.8271 21.8324L31.1229 2.69278C27.9991 -0.687105 22.7269 -0.894625 19.347 2.2292C19.1864 2.37764 19.0317 2.53223 18.8834 2.69278L1.21045 21.8262C0.434864 22.607 -0.000292821 23.6631 1.47835e-07 24.7637V43.7345C1.47835e-07 47.1862 2.79824 49.9845 6.25 49.9845H14.5833V37.4845C14.6223 31.8036 19.2089 27.1646 24.7467 27.031C30.4697 26.8929 35.373 31.6109 35.4167 37.4845Z" fill="black"/>
<path d="M25 31.2345C21.5482 31.2345 18.75 34.0327 18.75 37.4845V49.9845H31.25V37.4845C31.25 34.0327 28.4518 31.2345 25 31.2345Z" fill="black"/>
</g>
<defs>
<clipPath id="clip0_34_63">
<rect width="50" height="50" fill="white"/>
</clipPath>
</defs>
</svg>
