<svg width="43" height="43" viewBox="0 0 43 43" fill="none" xmlns="http://www.w3.org/2000/svg">
<g clip-path="url(#clip0_52_505)">
<path d="M40.945 2.05684C39.7269 0.840653 38.076 0.157562 36.3547 0.157562C34.6334 0.157562 32.9825 0.840653 31.7645 2.05684L2.62479 31.1965C1.79032 32.0263 1.12868 33.0133 0.678139 34.1004C0.227599 35.1876 -0.00289356 36.3533 -3.67622e-06 37.5301V41.2083C-3.67622e-06 41.6835 0.188761 42.1392 0.524763 42.4752C0.860766 42.8112 1.31648 43 1.79166 43H5.46995C6.64665 43.0033 7.81232 42.7732 8.89948 42.323C9.98664 41.8727 10.9737 41.2113 11.8035 40.377L40.945 11.2356C42.1606 10.0176 42.8433 8.36703 42.8433 6.6462C42.8433 4.92536 42.1606 3.27483 40.945 2.05684ZM9.27008 37.8436C8.25959 38.8474 6.89426 39.4126 5.46995 39.4167H3.58333V37.5301C3.58152 36.824 3.71978 36.1245 3.9901 35.4722C4.26043 34.8199 4.65746 34.2277 5.15821 33.7299L27.2727 11.6154L31.3936 15.7362L9.27008 37.8436ZM38.4097 8.70213L33.9198 13.1938L29.799 9.08197L34.2907 4.59026C34.5613 4.32027 34.8824 4.10622 35.2357 3.96033C35.589 3.81443 35.9676 3.73956 36.3498 3.73997C36.732 3.74039 37.1105 3.81609 37.4634 3.96275C37.8164 4.10941 38.1371 4.32416 38.4071 4.59474C38.6771 4.86532 38.8911 5.18642 39.037 5.53972C39.1829 5.89303 39.2578 6.2716 39.2573 6.65384C39.2569 7.03608 39.1812 7.4145 39.0346 7.76748C38.8879 8.12046 38.6732 8.4411 38.4026 8.71109L38.4097 8.70213Z" fill="#F7146B"/>
</g>
<defs>
<clipPath id="clip0_52_505">
<rect width="43" height="43" fill="white"/>
</clipPath>
</defs>
</svg>
