<svg width="50" height="50" viewBox="0 0 50 50" fill="none" xmlns="http://www.w3.org/2000/svg">
<g clip-path="url(#clip0_34_80)">
<path d="M49.3896 46.4438L36.9542 34.0083C40.343 29.8637 42.0091 24.5752 41.608 19.2366C41.2069 13.898 38.7692 8.91778 34.7991 5.32609C30.8291 1.7344 25.6304 -0.193971 20.2784 -0.0601547C14.9264 0.0736616 9.83063 2.25943 6.04503 6.04503C2.25943 9.83063 0.0736616 14.9264 -0.0601547 20.2784C-0.193971 25.6304 1.7344 30.8291 5.32609 34.7991C8.91778 38.7692 13.898 41.2069 19.2366 41.608C24.5752 42.0091 29.8637 40.343 34.0083 36.9542L46.4438 49.3896C46.8367 49.7691 47.3629 49.9791 47.9092 49.9743C48.4554 49.9696 48.9779 49.7505 49.3642 49.3642C49.7505 48.9779 49.9696 48.4554 49.9743 47.9092C49.9791 47.3629 49.7691 46.8367 49.3896 46.4438ZM20.8333 37.5C17.537 37.5 14.3147 36.5225 11.5738 34.6912C8.83301 32.8598 6.6968 30.2568 5.43534 27.2114C4.17388 24.166 3.84383 20.8148 4.48691 17.5818C5.13 14.3488 6.71735 11.3791 9.04822 9.04822C11.3791 6.71735 14.3488 5.13 17.5818 4.48691C20.8148 3.84383 24.166 4.17388 27.2114 5.43534C30.2568 6.6968 32.8598 8.83301 34.6912 11.5738C36.5225 14.3147 37.5 17.537 37.5 20.8333C37.495 25.2521 35.7375 29.4884 32.613 32.613C29.4884 35.7375 25.2521 37.495 20.8333 37.5Z" fill="black"/>
</g>
<defs>
<clipPath id="clip0_34_80">
<rect width="50" height="50" fill="white"/>
</clipPath>
</defs>
</svg>
