<svg width="50" height="50" viewBox="0 0 50 50" fill="none" xmlns="http://www.w3.org/2000/svg">
<path d="M3.34794 37.5C5.07118 40.4908 8.89276 41.5184 11.8836 39.7951C11.8856 39.7939 11.8876 39.7928 11.8896 39.7916L12.8167 39.2562C14.5667 40.7534 16.5782 41.9146 18.75 42.6812V43.75C18.75 47.2018 21.5482 50 25 50C28.4517 50 31.25 47.2018 31.25 43.75V42.6813C33.4221 41.9134 35.4337 40.7509 37.1833 39.2521L38.1145 39.7896C41.106 41.5154 44.9304 40.4895 46.6562 37.4979C48.3821 34.5063 47.3561 30.682 44.3645 28.9562L43.4395 28.4228C43.8559 26.1571 43.8559 23.8345 43.4395 21.5687L44.3645 21.0354C47.356 19.3095 48.3821 15.4853 46.6562 12.4937C44.9304 9.50215 41.1061 8.47607 38.1145 10.202L37.1875 10.7374C35.4357 9.24199 33.4228 8.08301 31.25 7.31875V6.25C31.25 2.79824 28.4517 0 25 0C21.5482 0 18.75 2.79824 18.75 6.25V7.31875C16.5779 8.08662 14.5663 9.24912 12.8167 10.7479L11.8854 10.2084C8.89384 8.48242 5.06962 9.5085 3.34374 12.5C1.61786 15.4915 2.64384 19.3158 5.63544 21.0417L6.56044 21.575C6.14403 23.8407 6.14403 26.1634 6.56044 28.4292L5.63544 28.9625C2.65214 30.693 1.62948 34.5098 3.34794 37.5ZM25 16.6667C29.6023 16.6667 33.3333 20.3977 33.3333 25C33.3333 29.6023 29.6023 33.3333 25 33.3333C20.3976 33.3333 16.6667 29.6023 16.6667 25C16.6667 20.3977 20.3976 16.6667 25 16.6667Z" fill="black"/>
</svg>
