<svg width="50" height="50" viewBox="0 0 50 50" fill="none" xmlns="http://www.w3.org/2000/svg">
<g clip-path="url(#clip0_34_87)">
<path d="M40.2771 30.5562C38.7008 30.5567 37.1483 30.9405 35.7535 31.6748C34.3587 32.409 33.1634 33.4716 32.2708 34.7708L18.7292 28.6562C19.6788 26.3242 19.6863 23.7146 18.75 21.3771L32.2792 15.2333C33.5984 17.1474 35.5601 18.5251 37.8082 19.1167C40.0564 19.7082 42.4421 19.4743 44.5326 18.4574C46.623 17.4405 48.2797 15.708 49.2022 13.5742C50.1246 11.4404 50.2516 9.04661 49.5602 6.82716C48.8687 4.6077 47.4047 2.7096 45.4336 1.4772C43.4625 0.244803 41.1149 -0.240246 38.8168 0.110049C36.5187 0.460345 34.4222 1.62278 32.9078 3.38647C31.3934 5.15015 30.5613 7.39825 30.5625 9.72291C30.5625 10.2759 30.6092 10.8278 30.7021 11.3729L16.3458 17.8896C14.9619 16.5988 13.2313 15.74 11.3663 15.4184C9.50134 15.0969 7.58307 15.3266 5.84676 16.0794C4.11044 16.8322 2.63155 18.0753 1.59146 19.6564C0.551369 21.2374 -0.00471152 23.0876 -0.00858558 24.9801C-0.0124596 26.8726 0.536041 28.725 1.56965 30.3103C2.60326 31.8956 4.07705 33.1448 5.81027 33.9047C7.54349 34.6646 9.4608 34.9021 11.3271 34.5882C13.1933 34.2743 14.9274 33.4226 16.3167 32.1375L30.6917 38.6312C30.3538 40.5959 30.628 42.617 31.4771 44.4207C32.3263 46.2243 33.7094 47.7233 35.4389 48.7147C37.1685 49.706 39.161 50.1418 41.1465 49.9628C43.132 49.7839 45.0145 48.999 46.539 47.7145C48.0635 46.4299 49.1563 44.7078 49.6693 42.7814C50.1824 40.855 50.0909 38.8175 49.4072 36.9448C48.7236 35.0722 47.4808 33.455 45.8473 32.3122C44.2138 31.1695 42.2706 30.5565 40.2771 30.5562Z" fill="black"/>
</g>
<defs>
<clipPath id="clip0_34_87">
<rect width="50" height="50" fill="white"/>
</clipPath>
</defs>
</svg>
