<svg width="50" height="50" viewBox="0 0 50 50" fill="none" xmlns="http://www.w3.org/2000/svg">
<g clip-path="url(#clip0_34_82)">
<path d="M47.4438 16.0854C46.4669 14.9596 45.2595 14.0568 43.9033 13.4383C42.5471 12.8197 41.0739 12.4997 39.5833 12.5H31.2729L31.9729 8.24793C32.2206 6.75056 31.9218 5.21405 31.131 3.91864C30.3402 2.62323 29.11 1.65525 27.665 1.19125C26.2199 0.727244 24.6563 0.79814 23.2591 1.391C21.862 1.98387 20.7245 3.05919 20.0542 4.42085L16.6667 11.2854V43.75H38.125C40.6322 43.7398 43.0525 42.8298 44.9454 41.1858C46.8384 39.5417 48.0783 37.2728 48.4396 34.7917L49.9083 24.375C50.116 22.8974 50.0034 21.3923 49.5782 19.962C49.1529 18.5317 48.425 17.2096 47.4438 16.0854Z" fill="black"/>
<path d="M0 22.9167V33.3333C0.00330804 36.095 1.10184 38.7426 3.05462 40.6954C5.00741 42.6482 7.65501 43.7467 10.4167 43.75H12.5V12.5H10.4167C7.65501 12.5033 5.00741 13.6018 3.05462 15.5546C1.10184 17.5074 0.00330804 20.155 0 22.9167Z" fill="black"/>
</g>
<defs>
<clipPath id="clip0_34_82">
<rect width="50" height="50" fill="white"/>
</clipPath>
</defs>
</svg>
